<?xml version="1.0" ?><!DOCTYPE svg  PUBLIC '-//W3C//DTD SVG 1.1//EN'  'http://www.w3.org/Graphics/SVG/1.1/DTD/svg11.dtd'><svg enable-background="new 0 0 64 64" height="64px" id="Layer_1" version="1.1" viewBox="0 0 64 64" width="64px" xml:space="preserve" xmlns="http://www.w3.org/2000/svg" xmlns:xlink="http://www.w3.org/1999/xlink"><path d="M57.917,1.583H6.083c-2.481,0-4.5,2.019-4.5,4.5v51.834c0,2.481,2.019,4.5,4.5,4.5h51.834c2.481,0,4.5-2.019,4.5-4.5V6.083  C62.417,3.602,60.398,1.583,57.917,1.583z M59.417,6.083v9.75h-36.75V4.583h35.25C58.744,4.583,59.417,5.256,59.417,6.083z   M6.083,4.583h13.583v11.25H4.583v-9.75C4.583,5.256,5.256,4.583,6.083,4.583z M4.583,57.917V18.833h15.083v40.583H6.083  C5.256,59.417,4.583,58.744,4.583,57.917z M57.917,59.417h-35.25V18.833h36.75v39.083C59.417,58.744,58.744,59.417,57.917,59.417z"/></svg>